<svg width="242" height="59" viewBox="0 0 242 59" fill="none" xmlns="http://www.w3.org/2000/svg">
<g clip-path="url(#clip0_921_9043)">
<path d="M15.0089 41.5623C15.0089 45.2265 17.6991 47.0541 23.0796 47.0541C28.4601 47.0541 31.1503 45.411 31.1503 42.1159C31.1503 40.3629 30.2282 38.9306 28.3929 37.8147C26.5532 36.6987 24.324 35.7717 21.7009 35.0292C19.0778 34.2867 16.4547 33.4256 13.8316 32.4414C11.2086 31.4617 8.9749 29.9196 7.13963 27.8239C5.29989 25.7282 4.38226 23.1141 4.38226 19.9815C4.38226 6.66051 13.1154 0 30.5863 0C36.9694 0 41.7948 1.18185 45.067 3.54554C48.3391 5.90923 49.973 9.18676 49.973 13.3781C49.973 14.9159 49.7715 16.3921 49.3642 17.798C48.9568 19.2039 48.5406 20.2012 48.1064 20.7855L47.4573 21.7389H33.0975C34.2881 20.5175 34.8835 18.9798 34.8835 17.1214C34.8835 13.6725 32.5827 11.9459 27.99 11.9459C22.2022 11.9459 19.3106 13.7516 19.3106 17.3586C19.3106 19.1643 20.2282 20.5966 22.068 21.6598C23.9077 22.7231 26.1369 23.5578 28.76 24.1685C31.3831 24.7792 34.0196 25.5349 36.6695 26.4356C39.3195 27.3406 41.5621 28.8388 43.4018 30.9345C45.2415 33.0302 46.1592 35.7497 46.1592 39.0976C46.1592 45.8415 44.1046 50.8413 39.9954 54.1057C35.8862 57.37 29.5567 59.0044 21.0116 59.0044C12.4664 59.0044 6.62486 57.5194 3.48701 54.545C1.15935 52.3175 0 49.2377 0 45.3099C0 43.8249 0.161145 42.2037 0.487912 40.4507L0.72963 39.1766H15.3312L15.17 40.13C15.0626 40.6616 15.0089 41.1405 15.0089 41.5623Z" fill="white"/>
<path d="M73.7418 0.557983L63.5181 57.8885H48.8359L59.1403 0.557983H73.7418Z" fill="white"/>
<path d="M94.0238 0.557983L102.703 28.0304L121.36 0.557983H136.692L126.387 57.8885H111.705L117.547 25.5613L105.053 44.8311H94.4267L88.9119 25.5613L83.0704 57.8885H68.4689L78.7732 0.557983H94.0238Z" fill="white"/>
<path d="M172.143 57.8885H131.418L141.723 0.557983H182.448L180.178 12.9783H154.055L152.188 23.7292H173.768L171.494 36.1495H149.914L148.294 45.4637H174.417L172.148 57.8841L172.143 57.8885Z" fill="white"/>
<path d="M189.592 38.6538H183.773L184.247 36.0177H190.066L189.592 38.6538Z" fill="white"/>
<path d="M186.897 0.531616L184.61 13.0486H198.11C201.602 13.0486 204.247 16.1416 203.643 19.5158L200.957 34.5327C202.752 35.2093 203.925 37.0634 203.567 39.0536L201.351 51.3949H202.233C203.222 51.3949 203.88 52.1813 203.706 53.1523C203.531 54.1233 202.587 54.9097 201.597 54.9097H197.309L196.7 58.3058H211.499L219.592 13.0486H239.704L241.991 0.531616H186.888H186.897Z" fill="#F5A202"/>
<path d="M199.073 25.9127L199.717 22.3364C200.322 18.9754 198.034 16.2471 194.61 16.2471H187.833L184.677 33.821H193.271L194.69 25.9127H199.077H199.073Z" fill="white"/>
<path d="M190.041 56.1693C192.728 53.7539 193.234 50.0028 191.17 47.791C189.107 45.5791 185.255 45.7441 182.568 48.1594C179.88 50.5748 179.375 54.326 181.438 56.5378C183.502 58.7497 187.353 58.5847 190.041 56.1693Z" fill="white"/>
<path d="M187.725 53.6873C188.746 52.7696 188.938 51.3439 188.153 50.5028C187.368 49.6617 185.904 49.7238 184.883 50.6414C183.862 51.5591 183.671 52.9848 184.455 53.8259C185.24 54.667 186.704 54.6049 187.725 53.6873Z" fill="white"/>
</g>
<defs>
<clipPath id="clip0_921_9043">
<rect width="242" height="59" fill="white"/>
</clipPath>
</defs>
</svg>
